<?xml version="1.0" encoding="UTF-8"?>
<svg xmlns="http://www.w3.org/2000/svg" width="30px" height="30px"
     viewBox="0 0 30 30" version="1.1">
    <g id="surface1">
        <path style=" stroke:none;fill-rule:nonzero;fill:current;fill-opacity:1;"
              d="M 28.71875 19.800781 C 28.074219 19.449219 27.242188 19.253906 26.1875 19.011719 C 25.636719 18.882812 25.027344 18.738281 24.371094 18.554688 C 24.5625 14.078125 25.15625 10.246094 26.28125 5.984375 C 26.371094 5.644531 26.246094 5.289062 25.972656 5.078125 C 22.914062 2.75 19.019531 1.46875 15 1.46875 C 10.980469 1.46875 7.085938 2.75 4.027344 5.078125 C 3.753906 5.289062 3.628906 5.644531 3.71875 5.980469 C 4.84375 10.246094 5.4375 14.078125 5.628906 18.554688 C 4.972656 18.738281 4.363281 18.882812 3.8125 19.011719 C 2.757812 19.253906 1.925781 19.449219 1.28125 19.800781 C 0.429688 20.269531 0 20.992188 0 21.945312 C 0 23.847656 1.660156 25.570312 4.679688 26.792969 C 7.449219 27.914062 11.113281 28.53125 15 28.53125 C 18.886719 28.53125 22.550781 27.914062 25.320312 26.792969 C 28.339844 25.570312 30 23.847656 30 21.945312 C 30 20.992188 29.570312 20.269531 28.71875 19.800781 Z M 15 3.1875 C 18.445312 3.1875 21.785156 4.222656 24.46875 6.113281 C 23.445312 10.140625 22.871094 13.9375 22.667969 18.210938 C 20.457031 18.878906 17.824219 19.265625 14.996094 19.265625 C 12.171875 19.265625 9.539062 18.878906 7.332031 18.214844 C 7.128906 13.9375 6.554688 10.140625 5.53125 6.113281 C 8.214844 4.222656 11.554688 3.1875 15 3.1875 Z M 15 26.8125 C 7.175781 26.8125 1.71875 24.246094 1.71875 21.945312 C 1.71875 21.359375 2.070312 21.183594 4.203125 20.683594 C 4.660156 20.578125 5.152344 20.464844 5.683594 20.324219 C 5.695312 20.890625 5.699219 21.46875 5.699219 22.058594 C 5.699219 22.4375 5.949219 22.773438 6.3125 22.882812 C 8.84375 23.644531 11.847656 24.050781 15 24.050781 C 18.152344 24.050781 21.15625 23.644531 23.6875 22.882812 C 24.050781 22.773438 24.300781 22.4375 24.300781 22.058594 C 24.300781 21.46875 24.304688 20.890625 24.316406 20.324219 C 24.847656 20.464844 25.339844 20.578125 25.796875 20.683594 C 27.929688 21.183594 28.28125 21.359375 28.28125 21.945312 C 28.28125 24.246094 22.824219 26.8125 15 26.8125 Z M 15 26.8125 "/>
    </g>
</svg>
